<?xml version="1.0" standalone="no"?>
<!DOCTYPE svg PUBLIC "-//W3C//DTD SVG 20010904//EN"
 "http://www.w3.org/TR/2001/REC-SVG-20010904/DTD/svg10.dtd">
<svg version="1.0" xmlns="http://www.w3.org/2000/svg"
 width="804.000000pt" height="1280.000000pt" viewBox="0 0 804.000000 1280.000000"
 preserveAspectRatio="xMidYMid meet">
<g transform="translate(0.000000,1280.000000) scale(0.100000,-0.100000)"
fill="#000000" stroke="none">
<path d="M3989 12795 c-3 -2 -77 -11 -165 -19 -183 -17 -254 -35 -269 -68 -8
-18 -19 -24 -50 -26 -22 -1 -348 -27 -725 -57 -1263 -100 -2220 -165 -2253
-152 -9 3 -17 16 -17 27 0 24 -24 25 -217 10 -124 -10 -194 -21 -259 -41 -30
-9 -31 -12 -23 -42 5 -18 31 -216 59 -442 27 -225 81 -651 119 -945 250 -1918
316 -2552 341 -3300 13 -378 13 -1724 0 -2295 -16 -729 -39 -1077 -145 -2260
-24 -269 -54 -603 -66 -741 l-22 -251 64 -82 c45 -57 70 -81 86 -81 31 0 296
51 305 59 7 6 85 552 147 1026 69 522 139 1176 162 1500 6 97 16 175 23 182 9
10 265 -101 1139 -491 621 -277 1131 -506 1134 -509 3 -4 9 -185 14 -404 8
-377 16 -671 39 -1508 21 -712 59 -1787 64 -1793 3 -3 45 -23 93 -44 l88 -39
120 32 c66 18 124 35 128 39 8 7 16 463 37 2080 6 459 13 844 15 855 3 13 18
26 39 33 39 14 31 -10 81 251 46 245 196 855 214 874 4 4 192 55 417 112 1956
495 2394 605 2415 605 35 -1 192 -48 199 -60 4 -6 10 -232 14 -503 8 -621 31
-1373 66 -2227 22 -519 30 -682 35 -690 7 -12 171 -80 192 -80 19 0 213 57
221 65 3 2 9 269 13 592 5 323 13 895 19 1271 5 375 15 1152 21 1725 5 573 13
1175 17 1337 l7 294 40 12 40 11 18 119 c17 114 17 175 0 258 -7 35 -14 42
-88 82 -250 136 -946 299 -2640 620 -401 76 -736 142 -743 147 -10 8 -11 50
-6 196 9 256 -17 815 -56 1221 -51 525 -101 909 -290 2230 -60 421 -123 869
-140 995 -39 295 -39 295 -54 295 -7 0 -15 -2 -17 -5z m-332 -967 c6 -7 18
-71 27 -143 12 -103 13 -132 3 -142 -7 -7 -193 -29 -492 -58 -644 -62 -1120
-109 -1470 -145 -923 -96 -997 -102 -1007 -92 -14 14 -61 303 -50 314 4 4 309
35 677 68 369 33 1030 94 1470 134 440 41 807 74 816 75 9 0 21 -5 26 -11z
m78 -590 c3 -13 11 -74 18 -136 10 -82 10 -115 2 -122 -6 -5 -146 -23 -311
-40 -284 -29 -803 -86 -1184 -131 -462 -53 -1218 -139 -1328 -150 -102 -11
-125 -10 -132 0 -14 23 -45 281 -34 290 8 8 2832 307 2926 310 31 1 38 -3 43
-21z m69 -580 c3 -13 19 -151 35 -308 111 -1047 148 -1551 158 -2165 5 -337 4
-402 -8 -411 -8 -6 -72 -21 -144 -33 -71 -13 -301 -57 -510 -98 -615 -120
-779 -150 -1195 -219 -217 -35 -521 -85 -675 -111 -154 -26 -296 -47 -315 -47
l-35 -1 -6 325 c-8 402 -29 719 -85 1275 -24 240 -124 1058 -163 1330 -10 72
-15 134 -10 139 4 5 498 66 1096 136 598 71 1237 146 1418 168 182 22 354 40
382 41 47 1 53 -1 57 -21z m-1550 -5184 c597 -230 1087 -423 1090 -430 2 -6 6
-195 7 -420 2 -300 -1 -409 -9 -412 -12 -4 -2206 942 -2230 961 -10 8 -11 82
-6 356 3 190 8 352 10 360 3 8 13 12 29 9 13 -3 512 -193 1109 -424z m5073 86
c2 -135 -1 -251 -5 -258 -8 -12 -194 -62 -230 -62 -27 0 -956 260 -966 271 -5
5 -7 12 -3 15 4 4 235 60 514 126 280 65 542 127 583 137 41 11 82 18 90 17
13 -1 15 -37 17 -246z m-1406 -326 c266 -75 488 -140 493 -145 5 -4 -1 -12
-15 -19 -13 -5 -314 -80 -669 -166 -355 -86 -797 -193 -982 -239 -186 -45
-342 -79 -347 -75 -7 4 -6 31 5 81 22 104 64 378 64 415 0 16 6 38 13 48 9 12
136 46 472 125 253 60 465 109 471 110 6 1 229 -60 495 -135z"/>
</g>
</svg>
