<?xml version="1.0" encoding="utf-8"?>
<!-- Generator: Adobe Illustrator 21.0.0, SVG Export Plug-In . SVG Version: 6.00 Build 0)  -->
<svg version="1.1" id="Icon" xmlns="http://www.w3.org/2000/svg" xmlns:xlink="http://www.w3.org/1999/xlink" x="0px" y="0px"
	 viewBox="0 0 46.1 46.1" style="enable-background:new 0 0 46.1 46.1;" xml:space="preserve">
<style type="text/css">
	.st0{fill:#83BC2A;}
</style>
<g>
	<path id="Tracé_195" class="st0" d="M19.7,21.6H1.4C0.6,21.6,0,21,0,20.2s0.6-1.4,1.4-1.4h18.2c0.8,0,1.4,0.6,1.4,1.4
		S20.5,21.6,19.7,21.6z"/>
	<path id="Tracé_196" class="st0" d="M12.5,28.8c-0.8,0-1.4-0.6-1.4-1.4c0-0.4,0.2-0.7,0.4-1l6.2-6.2L11.5,14
		c-0.6-0.5-0.6-1.5-0.1-2c0.5-0.6,1.5-0.6,2-0.1c0,0,0,0,0.1,0.1l7.2,7.2c0.6,0.6,0.6,1.5,0,2l-7.2,7.2
		C13.2,28.6,12.9,28.8,12.5,28.8z"/>
	<path id="Tracé_197" class="st0" d="M30.7,46.1c-2.1,0-3.8-1.7-3.8-3.8V7.7c0-1.6,1-3.1,2.6-3.6L41,0.2c2-0.7,4.2,0.5,4.9,2.5
		c0.1,0.4,0.2,0.8,0.2,1.1v34.6c0,1.6-1,3.1-2.6,3.6l-11.5,3.8C31.5,46,31.1,46.1,30.7,46.1z M42.2,2.9c-0.1,0-0.2,0-0.3,0L30.4,6.8
		c-0.4,0.1-0.6,0.5-0.6,0.9v34.6c0,0.6,0.5,1,1.1,1c0.1,0,0.2,0,0.2,0l11.5-3.8c0.4-0.1,0.6-0.5,0.6-0.9V3.8
		C43.2,3.3,42.8,2.9,42.2,2.9L42.2,2.9z"/>
	<path id="Tracé_198" class="st0" d="M16.8,9.6c-0.8,0-1.4-0.6-1.4-1.4c0,0,0,0,0,0V5.3c0-2.9,2.4-5.3,5.3-5.3h21.6
		c0.8,0,1.4,0.6,1.4,1.4S43,2.9,42.2,2.9H20.6c-1.3,0-2.4,1.1-2.4,2.4v2.9C18.2,9,17.6,9.6,16.8,9.6L16.8,9.6z"/>
	<path id="Tracé_199" class="st0" d="M28.3,40.3h-7.7c-2.9,0-5.3-2.4-5.3-5.3v-2.9c0-0.8,0.6-1.4,1.4-1.4s1.4,0.6,1.4,1.4l0,0V35
		c0,1.3,1.1,2.4,2.4,2.4h7.7c0.8,0,1.4,0.6,1.4,1.4S29.1,40.3,28.3,40.3z"/>
</g>
</svg>
